#N canvas 193 46 648 406 10;
#X obj 331 77 hoc.key Space;
#X msg 415 133 1;
#X obj 38 204 openpanel;
#X obj 101 109 bng 15 250 50 0 empty empty empty 17 7 0 10 -262144
-1 -1;
#X obj 330 196 hoc.play~, f 17;
#X symbolatom 39 269 14 0 0 0 - #0-path-rcv #0-path-snd, f 14;
#X msg 331 157 stop;
#X obj 299 318 throw~ masterL;
#X obj 331 341 throw~ masterR;
#X obj 447 169 r \$0-path-rcv;
#X obj 38 225 s \$0-path-rcv;
#X obj 131 67 r \$0-path-rcv;
#X symbolatom 101 125 20 0 0 0 - - -, f 20;
#X obj 85 48 apsubmaster \$0-localref \$1 \$2;
#X obj 39 248 apsym \$0-localref path \$0-path;
#X obj 131 87 hoc.lastchars 20;
#X obj 381 257 line~;
#X obj 330 279 *~;
#X obj 331 99 t b b, f 7;
#X msg 378 150 0;
#X obj 256 78 env~;
#X obj 332 130 delay 1000;
#X msg 385 234 \$1 1000;
#X obj 39 310 apf \$0-localref volume \$0-volume;
#X obj 330 239 *~;
#X obj 203 210 line~;
#X msg 203 190 \$1 20;
#X obj 203 169 r \$0-volume-snd;
#X obj 139 114 hsl 100 10 0 1.5 0 0 \$0-volume-snd \$0-volume-rcv volume
-2 5 0 10 -204786 -1 -1 6900 1;
#X obj 208 128 cnv 1 1 10 empty empty empty 20 12 0 14 -204800 -66577
0;
#X obj 252 127 hsl 30 10 0 100 0 0 empty empty empty -2 -8 0 10 -261234
-258113 -86277 0 1;
#X obj 519 49 notein;
#X obj 519 96 stripnote;
#X obj 519 71 pack f f;
#X obj 519 120 sel \$3;
#X obj 437 65 hoc.key \$2;
#X connect 0 0 18 0;
#X connect 1 0 4 0;
#X connect 1 0 16 0;
#X connect 2 0 10 0;
#X connect 3 0 2 0;
#X connect 4 0 24 1;
#X connect 6 0 4 0;
#X connect 9 0 4 1;
#X connect 11 0 15 0;
#X connect 15 0 12 0;
#X connect 16 0 17 1;
#X connect 17 0 7 0;
#X connect 17 0 8 0;
#X connect 17 0 20 0;
#X connect 18 0 21 0;
#X connect 18 1 19 0;
#X connect 19 0 22 0;
#X connect 20 0 30 0;
#X connect 21 0 6 0;
#X connect 22 0 16 0;
#X connect 24 0 17 0;
#X connect 25 0 24 0;
#X connect 26 0 25 0;
#X connect 27 0 26 0;
#X connect 31 0 33 0;
#X connect 31 1 33 1;
#X connect 32 0 34 0;
#X connect 33 0 32 0;
#X connect 34 0 1 0;
#X connect 35 0 1 0;
#X coords 0 -1 1 1 200 40 1 100 100;
