#N canvas 394 30 861 524 10;
#X obj 626 458 h.output~;
#X obj 626 418 catch~ masterL;
#X obj 705 435 catch~ masterR;
#N canvas 1 50 485 359 preset 0;
#X obj 111 118 bng 15 250 50 0 empty empty recall 17 7 0 10 -4034 -1
-1;
#X obj 111 138 bng 15 250 50 0 empty empty store 17 7 0 10 -258113
-1 -1;
#X obj 42 88 loadbang;
#X obj 39 66 apmaster SamplerPreset;
#X obj 44 241 apmasterfile SamplerPreset preset.txt;
#X obj 44 262 apsubmaster \$0-samplers-sub SamplerPreset samplers-sub
;
#N canvas 1 50 450 300 CtrlS 0;
#X obj 11 17 keyname;
#X obj 57 37 list fromsymbol;
#X obj 57 59 change;
#X obj 57 81 sel 19;
#X obj 57 103 outlet;
#X connect 0 1 1 0;
#X connect 1 0 2 0;
#X connect 2 0 3 0;
#X connect 3 0 4 0;
#X restore 199 82 pd CtrlS;
#X connect 0 0 4 0;
#X connect 1 0 4 1;
#X connect 2 0 0 0;
#X connect 6 0 1 0;
#X coords 0 -1 1 1 85 60 1 100 100;
#X restore 622 343 pd preset;
#X obj 13 19 abs-sampler~ \$0-samplers-sub a 48;
#X obj 38 59 abs-sampler~ \$0-samplers-sub z 49;
#X obj 14 99 abs-sampler~ \$0-samplers-sub e 50;
#X obj 38 139 abs-sampler~ \$0-samplers-sub r 51;
#X obj 13 179 abs-sampler~ \$0-samplers-sub t 52;
#X obj 13 219 abs-sampler~ \$0-samplers-sub y 53;
#X obj 44 259 abs-sampler~ \$0-samplers-sub u 54;
#X obj 13 299 abs-sampler~ \$0-samplers-sub i 55;
#X obj 42 339 abs-sampler~ \$0-samplers-sub o 56;
#X obj 13 379 abs-sampler~ \$0-samplers-sub p 57;
#X obj 42 419 abs-sampler~ \$0-samplers-sub q 58;
#X obj 12 459 abs-sampler~ \$0-samplers-sub s 59;
#X obj 295 19 abs-sampler~ \$0-samplers-sub d 60;
#X obj 321 59 abs-sampler~ \$0-samplers-sub f 61;
#X obj 295 99 abs-sampler~ \$0-samplers-sub g 62;
#X obj 319 139 abs-sampler~ \$0-samplers-sub h 63;
#X obj 294 179 abs-sampler~ \$0-samplers-sub j 64;
#X obj 295 219 abs-sampler~ \$0-samplers-sub k 65;
#X obj 319 259 abs-sampler~ \$0-samplers-sub l 66;
#X obj 294 299 abs-sampler~ \$0-samplers-sub m 67;
#X obj 320 339 abs-sampler~ \$0-samplers-sub w 68;
#X obj 295 379 abs-sampler~ \$0-samplers-sub x 69;
#X obj 326 419 abs-sampler~ \$0-samplers-sub c 70;
#X obj 297 459 abs-sampler~ \$0-samplers-sub v 71;
#X connect 1 0 0 0;
#X connect 2 0 0 1;
